<svg width="20" height="13" viewBox="0 0 20 13" fill="none" xmlns="http://www.w3.org/2000/svg">
<path id="right-arrow" d="M6.0511 12.8387L0.194549 7.03239L0.161666 7.00227C0.0615839 6.90303 0.00769751 6.77533 -5.55534e-07 6.64543L-5.61535e-07 6.57679C0.00769749 6.4469 0.0615839 6.3192 0.161666 6.21996L0.190496 6.19557L6.0511 0.383495C6.26794 0.168468 6.61952 0.168468 6.83636 0.383495C7.0532 0.59852 7.0532 0.947148 6.83636 1.16217L1.83185 6.12564L19.4447 6.12521C19.7514 6.12521 20 6.37172 20 6.67582C20 6.97991 19.7514 7.22643 19.4447 7.22643L1.96234 7.22686L6.83636 12.0601C7.0532 12.2751 7.0532 12.6237 6.83636 12.8387C6.61952 13.0538 6.26794 13.0538 6.0511 12.8387ZM0.491468 6.67628L6.44373 0.772833L0.554359 6.611L0.5543 6.61313L0.58714 6.64301L0.6207 6.67628L0.491468 6.67628Z" fill="black"/>
</svg>
