<svg width="198" height="31" viewBox="0 0 198 31" fill="none" xmlns="http://www.w3.org/2000/svg">
<path d="M10.848 24.32C8.608 24.32 6.74133 24.0107 5.248 23.392C3.776 22.752 2.66667 21.9307 1.92 20.928C1.19467 19.904 0.810667 18.8267 0.768 17.696C0.768 17.504 0.832 17.344 0.96 17.216C1.088 17.088 1.248 17.024 1.44 17.024H6.528C6.82667 17.024 7.06133 17.0773 7.232 17.184C7.40267 17.2693 7.584 17.3973 7.776 17.568C7.968 17.8027 8.192 18.0267 8.448 18.24C8.704 18.432 9.03467 18.592 9.44 18.72C9.84533 18.8267 10.3147 18.88 10.848 18.88C11.8293 18.88 12.5867 18.752 13.12 18.496C13.6533 18.2187 13.92 17.8453 13.92 17.376C13.92 17.0133 13.7707 16.7147 13.472 16.48C13.1947 16.2453 12.7147 16.032 12.032 15.84C11.3493 15.648 10.4213 15.4453 9.248 15.232C7.60533 14.9547 6.18667 14.5493 4.992 14.016C3.79733 13.4613 2.88 12.7253 2.24 11.808C1.62133 10.8693 1.312 9.71733 1.312 8.352C1.312 6.96533 1.696 5.73867 2.464 4.672C3.25333 3.60533 4.34133 2.77333 5.728 2.176C7.136 1.57867 8.768 1.28 10.624 1.28C12.16 1.28 13.5147 1.48267 14.688 1.888C15.8827 2.29333 16.8853 2.82667 17.696 3.488C18.5067 4.128 19.1253 4.82133 19.552 5.568C19.9787 6.31467 20.2027 7.02933 20.224 7.712C20.224 7.904 20.1493 8.07467 20 8.224C19.872 8.352 19.7227 8.416 19.552 8.416H14.208C13.952 8.416 13.728 8.37333 13.536 8.288C13.3653 8.20267 13.2053 8.064 13.056 7.872C12.9493 7.57333 12.6827 7.30667 12.256 7.072C11.8293 6.83733 11.2853 6.72 10.624 6.72C9.89867 6.72 9.344 6.848 8.96 7.104C8.576 7.33867 8.384 7.69067 8.384 8.16C8.384 8.48 8.50133 8.75733 8.736 8.992C8.97067 9.22667 9.38667 9.44 9.984 9.632C10.5813 9.80267 11.4133 9.99467 12.48 10.208C14.5067 10.5067 16.1387 10.9333 17.376 11.488C18.6347 12.0427 19.552 12.768 20.128 13.664C20.704 14.56 20.992 15.68 20.992 17.024C20.992 18.5387 20.5547 19.84 19.68 20.928C18.8053 22.016 17.6 22.8587 16.064 23.456C14.5493 24.032 12.8107 24.32 10.848 24.32ZM24.246 24C24.0113 24 23.8087 23.9253 23.638 23.776C23.4887 23.6053 23.414 23.4027 23.414 23.168V8.192C23.414 7.95733 23.4887 7.76533 23.638 7.616C23.8087 7.44533 24.0113 7.36 24.246 7.36H28.63C28.8647 7.36 29.0567 7.44533 29.206 7.616C29.3767 7.76533 29.462 7.95733 29.462 8.192V9.248C29.8673 8.736 30.454 8.256 31.222 7.808C31.99 7.33867 32.8967 7.08267 33.942 7.04C36.438 6.976 38.1233 7.872 38.998 9.728C39.4887 8.96 40.182 8.32 41.078 7.808C41.9953 7.296 42.966 7.04 43.99 7.04C45.0993 7.04 46.0913 7.296 46.966 7.808C47.862 8.29867 48.5767 9.06667 49.11 10.112C49.6433 11.136 49.91 12.48 49.91 14.144V23.168C49.91 23.4027 49.8247 23.6053 49.654 23.776C49.5047 23.9253 49.3127 24 49.078 24H44.406C44.1713 24 43.9687 23.9253 43.798 23.776C43.6487 23.6053 43.574 23.4027 43.574 23.168V14.336C43.574 13.7813 43.4887 13.344 43.318 13.024C43.1473 12.6827 42.9233 12.4373 42.646 12.288C42.39 12.1173 42.0807 12.032 41.718 12.032C41.3767 12.032 41.0673 12.1173 40.79 12.288C40.5127 12.4373 40.2887 12.6827 40.118 13.024C39.9687 13.344 39.894 13.7813 39.894 14.336V23.168C39.894 23.4027 39.8087 23.6053 39.638 23.776C39.4887 23.9253 39.2967 24 39.062 24H34.39C34.1553 24 33.9527 23.9253 33.782 23.776C33.6327 23.6053 33.558 23.4027 33.558 23.168V14.336C33.558 13.7813 33.4727 13.344 33.302 13.024C33.1313 12.6827 32.9073 12.4373 32.63 12.288C32.374 12.1173 32.0647 12.032 31.702 12.032C31.3607 12.032 31.0513 12.1173 30.774 12.288C30.4967 12.4587 30.2727 12.704 30.102 13.024C29.9313 13.344 29.846 13.7813 29.846 14.336V23.168C29.846 23.4027 29.7607 23.6053 29.59 23.776C29.4407 23.9253 29.2487 24 29.014 24H24.246ZM58.2223 24.32C57.0489 24.32 55.9929 24.096 55.0543 23.648C54.1369 23.2 53.4116 22.6027 52.8783 21.856C52.3663 21.088 52.1103 20.2347 52.1103 19.296C52.1103 17.76 52.7289 16.5547 53.9663 15.68C55.2249 14.784 56.8996 14.1653 58.9903 13.824L62.6703 13.248V13.024C62.6703 12.3627 62.5636 11.872 62.3503 11.552C62.1583 11.2107 61.7423 11.04 61.1023 11.04C60.6543 11.04 60.2916 11.1253 60.0143 11.296C59.7369 11.4667 59.4809 11.712 59.2463 12.032C59.0329 12.2667 58.7556 12.384 58.4143 12.384H53.9023C53.6676 12.384 53.4863 12.32 53.3583 12.192C53.2303 12.064 53.1769 11.8933 53.1983 11.68C53.2196 11.296 53.3796 10.848 53.6783 10.336C53.9769 9.80267 54.4356 9.29067 55.0543 8.8C55.6943 8.288 56.5156 7.872 57.5183 7.552C58.5209 7.21067 59.7263 7.04 61.1343 7.04C62.5636 7.04 63.7903 7.2 64.8143 7.52C65.8383 7.84 66.6809 8.288 67.3423 8.864C68.0036 9.44 68.4943 10.144 68.8143 10.976C69.1343 11.7867 69.2943 12.6933 69.2943 13.696V23.168C69.2943 23.4027 69.2089 23.6053 69.0382 23.776C68.8889 23.9253 68.6969 24 68.4623 24H63.7903C63.5769 24 63.3849 23.9253 63.2143 23.776C63.0436 23.6053 62.9583 23.4027 62.9583 23.168V22.144C62.6809 22.5707 62.3076 22.944 61.8383 23.264C61.3903 23.584 60.8569 23.84 60.2383 24.032C59.6409 24.224 58.9689 24.32 58.2223 24.32ZM60.0783 20.128C60.6116 20.128 61.0703 20.0213 61.4543 19.808C61.8596 19.5733 62.1796 19.2213 62.4143 18.752C62.6489 18.2827 62.7663 17.696 62.7663 16.992V16.768L60.4623 17.216C59.6729 17.3653 59.1183 17.5893 58.7983 17.888C58.4783 18.1653 58.3183 18.4747 58.3183 18.816C58.3183 19.072 58.3929 19.296 58.5423 19.488C58.6916 19.68 58.8943 19.84 59.1503 19.968C59.4276 20.0747 59.7369 20.128 60.0783 20.128ZM73.3085 24C73.0738 24 72.8712 23.9253 72.7005 23.776C72.5512 23.6053 72.4765 23.4027 72.4765 23.168V8.192C72.4765 7.95733 72.5512 7.76533 72.7005 7.616C72.8712 7.44533 73.0738 7.36 73.3085 7.36H78.0445C78.2792 7.36 78.4818 7.44533 78.6525 7.616C78.8232 7.76533 78.9085 7.95733 78.9085 8.192V23.168C78.9085 23.4027 78.8232 23.6053 78.6525 23.776C78.4818 23.9253 78.2792 24 78.0445 24H73.3085ZM73.3725 5.28C73.1378 5.28 72.9352 5.20533 72.7645 5.056C72.6152 4.88533 72.5405 4.68267 72.5405 4.448V1.088C72.5405 0.853332 72.6152 0.650665 72.7645 0.48C72.9352 0.309333 73.1378 0.223999 73.3725 0.223999H77.9805C78.2152 0.223999 78.4178 0.309333 78.5885 0.48C78.7592 0.650665 78.8445 0.853332 78.8445 1.088V4.448C78.8445 4.68267 78.7592 4.88533 78.5885 5.056C78.4178 5.20533 78.2152 5.28 77.9805 5.28H73.3725ZM83.0273 24C82.7926 24 82.5899 23.9253 82.4193 23.776C82.2699 23.6053 82.1953 23.4027 82.1953 23.168V2.112C82.1953 1.87733 82.2699 1.68533 82.4193 1.536C82.5899 1.36533 82.7926 1.28 83.0273 1.28H87.7953C88.0086 1.28 88.2006 1.36533 88.3713 1.536C88.5419 1.68533 88.6273 1.87733 88.6273 2.112V23.168C88.6273 23.4027 88.5419 23.6053 88.3713 23.776C88.2006 23.9253 88.0086 24 87.7953 24H83.0273ZM100.105 24.32C97.4386 24.32 95.3159 23.6373 93.7373 22.272C92.1799 20.8853 91.3799 18.7733 91.3372 15.936C91.3372 15.8507 91.3372 15.744 91.3372 15.616C91.3372 15.4667 91.3372 15.36 91.3372 15.296C91.4013 13.5253 91.7853 12.032 92.4893 10.816C93.2146 9.57867 94.2173 8.64 95.4973 8C96.7986 7.36 98.3239 7.04 100.073 7.04C102.036 7.04 103.657 7.43467 104.937 8.224C106.239 8.992 107.209 10.0267 107.849 11.328C108.489 12.608 108.809 14.048 108.809 15.648V16.544C108.809 16.7573 108.724 16.9493 108.553 17.12C108.383 17.2907 108.18 17.376 107.945 17.376H98.0893C98.0893 17.376 98.0893 17.3973 98.0893 17.44C98.0893 17.4827 98.0893 17.5253 98.0893 17.568C98.0893 18.08 98.1533 18.5387 98.2812 18.944C98.4306 19.328 98.6546 19.6373 98.9533 19.872C99.2519 20.0853 99.6146 20.192 100.041 20.192C100.319 20.192 100.553 20.1493 100.745 20.064C100.937 19.9787 101.097 19.872 101.225 19.744C101.375 19.5947 101.503 19.456 101.609 19.328C101.801 19.136 101.961 19.0187 102.089 18.976C102.217 18.912 102.409 18.88 102.665 18.88H107.689C107.881 18.88 108.041 18.944 108.169 19.072C108.319 19.2 108.383 19.36 108.361 19.552C108.34 19.936 108.159 20.4053 107.817 20.96C107.476 21.4933 106.964 22.016 106.281 22.528C105.62 23.04 104.767 23.4667 103.721 23.808C102.676 24.1493 101.471 24.32 100.105 24.32ZM98.0893 13.792H102.057V13.728C102.057 13.152 101.983 12.6613 101.833 12.256C101.684 11.8507 101.46 11.552 101.161 11.36C100.863 11.1467 100.5 11.04 100.073 11.04C99.6466 11.04 99.2839 11.1467 98.9853 11.36C98.6866 11.552 98.4626 11.8507 98.3133 12.256C98.1639 12.6613 98.0893 13.152 98.0893 13.728V13.792ZM118.972 24C118.759 24 118.567 23.9253 118.396 23.776C118.226 23.6053 118.14 23.4027 118.14 23.168V2.432C118.14 2.19733 118.226 2.00533 118.396 1.856C118.567 1.68533 118.759 1.6 118.972 1.6H129.18C131.122 1.6 132.711 1.856 133.948 2.368C135.186 2.88 136.103 3.616 136.7 4.576C137.298 5.536 137.596 6.72 137.596 8.128C137.596 8.85333 137.447 9.504 137.148 10.08C136.871 10.6347 136.53 11.104 136.124 11.488C135.719 11.8507 135.335 12.1173 134.972 12.288C135.804 12.6507 136.53 13.2693 137.148 14.144C137.767 14.9973 138.076 15.9787 138.076 17.088C138.076 18.5813 137.735 19.84 137.052 20.864C136.391 21.888 135.42 22.6667 134.14 23.2C132.882 23.7333 131.335 24 129.5 24H118.972ZM125.02 19.168H128.764C129.49 19.168 130.023 18.9547 130.364 18.528C130.706 18.08 130.876 17.5893 130.876 17.056C130.876 16.5013 130.695 16.0213 130.332 15.616C129.97 15.1893 129.447 14.976 128.764 14.976H125.02V19.168ZM125.02 10.272H128.444C129.127 10.272 129.628 10.08 129.948 9.696C130.268 9.312 130.428 8.864 130.428 8.352C130.428 7.84 130.268 7.392 129.948 7.008C129.628 6.624 129.127 6.432 128.444 6.432H125.02V10.272ZM145.972 24.32C144.799 24.32 143.743 24.096 142.804 23.648C141.887 23.2 141.162 22.6027 140.628 21.856C140.116 21.088 139.86 20.2347 139.86 19.296C139.86 17.76 140.479 16.5547 141.716 15.68C142.975 14.784 144.65 14.1653 146.74 13.824L150.42 13.248V13.024C150.42 12.3627 150.314 11.872 150.1 11.552C149.908 11.2107 149.492 11.04 148.852 11.04C148.404 11.04 148.042 11.1253 147.764 11.296C147.487 11.4667 147.231 11.712 146.996 12.032C146.783 12.2667 146.506 12.384 146.164 12.384H141.652C141.418 12.384 141.236 12.32 141.108 12.192C140.98 12.064 140.927 11.8933 140.948 11.68C140.97 11.296 141.13 10.848 141.428 10.336C141.727 9.80267 142.186 9.29067 142.804 8.8C143.444 8.288 144.266 7.872 145.268 7.552C146.271 7.21067 147.476 7.04 148.884 7.04C150.314 7.04 151.54 7.2 152.564 7.52C153.588 7.84 154.431 8.288 155.092 8.864C155.754 9.44 156.244 10.144 156.564 10.976C156.884 11.7867 157.044 12.6933 157.044 13.696V23.168C157.044 23.4027 156.959 23.6053 156.788 23.776C156.639 23.9253 156.447 24 156.212 24H151.54C151.327 24 151.135 23.9253 150.964 23.776C150.794 23.6053 150.708 23.4027 150.708 23.168V22.144C150.431 22.5707 150.058 22.944 149.588 23.264C149.14 23.584 148.607 23.84 147.988 24.032C147.391 24.224 146.719 24.32 145.972 24.32ZM147.828 20.128C148.362 20.128 148.82 20.0213 149.204 19.808C149.61 19.5733 149.93 19.2213 150.164 18.752C150.399 18.2827 150.516 17.696 150.516 16.992V16.768L148.212 17.216C147.423 17.3653 146.868 17.5893 146.548 17.888C146.228 18.1653 146.068 18.4747 146.068 18.816C146.068 19.072 146.143 19.296 146.292 19.488C146.442 19.68 146.644 19.84 146.9 19.968C147.178 20.0747 147.487 20.128 147.828 20.128ZM171.267 24.32C170.115 24.32 169.144 24.1387 168.355 23.776C167.587 23.392 166.936 22.8907 166.403 22.272V23.168C166.403 23.4027 166.317 23.6053 166.147 23.776C165.997 23.9253 165.805 24 165.571 24H161.059C160.824 24 160.621 23.9253 160.451 23.776C160.301 23.6053 160.227 23.4027 160.227 23.168V2.112C160.227 1.87733 160.301 1.68533 160.451 1.536C160.621 1.36533 160.824 1.28 161.059 1.28H165.987C166.2 1.28 166.392 1.36533 166.562 1.536C166.733 1.68533 166.819 1.87733 166.819 2.112V8.736C167.331 8.224 167.949 7.81867 168.675 7.52C169.421 7.2 170.285 7.04 171.267 7.04C172.269 7.04 173.176 7.21067 173.987 7.552C174.797 7.872 175.501 8.34133 176.099 8.96C176.696 9.57867 177.165 10.3573 177.507 11.296C177.848 12.2133 178.04 13.2693 178.083 14.464C178.104 14.912 178.115 15.3067 178.115 15.648C178.115 15.9893 178.104 16.3947 178.083 16.864C178.019 18.1227 177.816 19.2213 177.475 20.16C177.133 21.0987 176.664 21.8773 176.067 22.496C175.469 23.1147 174.765 23.5733 173.955 23.872C173.165 24.1707 172.269 24.32 171.267 24.32ZM169.091 19.328C169.645 19.328 170.072 19.2213 170.371 19.008C170.691 18.7733 170.915 18.464 171.043 18.08C171.192 17.6747 171.288 17.216 171.331 16.704C171.395 16.0213 171.395 15.3387 171.331 14.656C171.288 14.144 171.192 13.696 171.043 13.312C170.915 12.9067 170.691 12.5973 170.371 12.384C170.072 12.1493 169.645 12.032 169.091 12.032C168.557 12.032 168.131 12.1387 167.811 12.352C167.491 12.5653 167.245 12.8427 167.075 13.184C166.925 13.5253 166.84 13.92 166.819 14.368C166.797 14.816 166.786 15.2107 166.786 15.552C166.786 15.8933 166.797 16.2987 166.819 16.768C166.84 17.2373 166.915 17.664 167.043 18.048C167.192 18.432 167.427 18.7413 167.747 18.976C168.088 19.2107 168.536 19.328 169.091 19.328ZM183.427 30.08C183.235 30.08 183.064 30.016 182.915 29.888C182.787 29.76 182.723 29.6 182.723 29.408C182.723 29.3653 182.723 29.312 182.723 29.248C182.744 29.184 182.765 29.1093 182.786 29.024L185.347 22.976L179.171 8.416C179.128 8.288 179.107 8.18133 179.107 8.096C179.149 7.904 179.235 7.73333 179.363 7.584C179.512 7.43467 179.683 7.36 179.875 7.36H184.387C184.707 7.36 184.931 7.44533 185.059 7.616C185.208 7.76533 185.315 7.91467 185.379 8.064L188.515 16.384L191.747 8.064C191.832 7.89333 191.949 7.73333 192.099 7.584C192.248 7.43467 192.472 7.36 192.771 7.36H197.251C197.421 7.36 197.581 7.43467 197.731 7.584C197.88 7.712 197.955 7.86133 197.955 8.032C197.955 8.16 197.933 8.288 197.891 8.416L188.867 29.376C188.781 29.5467 188.653 29.7067 188.483 29.856C188.333 30.0053 188.109 30.08 187.811 30.08H183.427Z" fill="#888888"/>
</svg>
