<svg width="30" height="30" viewBox="0 0 30 30" fill="none" xmlns="http://www.w3.org/2000/svg">
<path d="M23.519 6.67123C20.8121 7.79235 9.20533 12.6 5.99839 13.9103C3.84767 14.7496 5.10673 15.5366 5.10673 15.5366C5.10673 15.5366 6.94263 16.166 8.51651 16.6381C10.0902 17.1102 10.9295 16.5858 10.9295 16.5858L18.3259 11.6023C20.9487 9.81877 20.3193 11.2875 19.6897 11.9171C18.3259 13.2811 16.0702 15.4316 14.1817 17.1628C13.3424 17.8972 13.762 18.5266 14.1294 18.8414C15.4932 19.9955 19.2178 22.3561 19.4274 22.5134C20.5356 23.298 22.7153 24.4272 23.0469 22.0413L24.3583 13.8056C24.778 11.0255 25.1976 8.45499 25.2499 7.72063C25.4075 5.93687 23.519 6.67123 23.519 6.67123Z" fill="#888888"/>
<rect x="0.5" y="0.5" width="29" height="29" rx="11.5" stroke="#888888"/>
</svg>
