<svg width="30" height="30" viewBox="0 0 30 30" fill="none" xmlns="http://www.w3.org/2000/svg">
<path fill-rule="evenodd" clip-rule="evenodd" d="M22.2101 7.75059C13.7546 -0.460033 0.489935 9.69715 6.23678 19.9925L4.79688 25.2496L10.177 23.839C20.4701 29.2811 30.3241 16.0923 22.2101 7.75059Z" fill="#888888"/>
<path fill-rule="evenodd" clip-rule="evenodd" d="M15.0314 23.524C13.361 23.5299 11.7372 23.0283 10.3366 22.1391L7.08152 22.9924L7.95052 19.8198C6.97416 18.3729 6.4235 16.6758 6.43098 14.9193C6.41558 7.31855 15.7645 3.44325 21.1151 8.84403C26.5086 14.1988 22.6344 23.5407 15.0314 23.524Z" fill="#1C1C1E"/>
<path fill-rule="evenodd" clip-rule="evenodd" d="M19.7487 17.0848C19.4902 16.9554 18.2191 16.33 17.9821 16.2437C17.7452 16.1575 17.5727 16.1144 17.4005 16.3733C17.228 16.632 16.733 17.2142 16.5821 17.3864C16.4314 17.5591 16.2804 17.5807 16.0219 17.4513C15.4634 17.5259 12.5979 15.1026 12.5046 14.3779C12.3539 14.1194 12.4885 13.9793 12.6181 13.8504C12.8432 13.6033 13.1281 13.2927 13.2642 12.9664C13.3505 12.7937 13.3074 12.6428 13.2427 12.5134C13.178 12.3841 12.6755 11.1054 12.4456 10.5944C12.252 10.1638 12.0481 10.1552 11.8639 10.1475C11.4277 10.1544 11.09 10.0411 10.679 10.465C9.13814 11.948 9.84478 14.0321 10.8297 15.2951C10.9589 15.4676 12.6183 18.1613 15.2462 19.1975C17.4302 20.0588 17.8746 19.8874 18.3487 19.8443C18.8228 19.8011 19.8783 19.219 20.0937 18.6153C20.3091 18.0117 20.3091 17.4942 20.2446 17.3862C20.1797 17.2788 20.0072 17.2142 19.7487 17.0848Z" fill="#888888"/>
<rect x="0.5" y="0.5" width="29" height="29" rx="11.5" stroke="#888888"/>
</svg>
